<?xml version="1.0" encoding="UTF-8"?>
<svg version="1.1" xmlns="http://www.w3.org/2000/svg" width="575" height="183">
<path d="M0 0 C5.94 0 11.88 0 18 0 C18.54003662 1.6305835 19.08007324 3.26116699 19.63647461 4.94116211 C21.41814788 10.31838552 23.20257986 15.69468797 24.98891354 21.07036495 C26.0722438 24.33080887 27.15445074 27.59161683 28.23413086 30.85327148 C29.47440019 34.59989486 30.7194831 38.34490946 31.96484375 42.08984375 C32.35341049 43.26586655 32.74197723 44.44188934 33.14231873 45.65354919 C33.50261673 46.73459427 33.86291473 47.81563934 34.23413086 48.92944336 C34.55167831 49.88652695 34.86922577 50.84361053 35.19639587 51.82969666 C35.80910063 53.94829336 35.80910063 53.94829336 37 55 C37.22328476 54.34045319 37.44656952 53.68090637 37.67662048 53.00137329 C39.77928169 46.79129437 41.88332 40.58168398 43.98891354 34.37259865 C45.07141605 31.1802977 46.15338182 27.98781693 47.23413086 24.79492188 C48.47635543 21.12584415 49.72041434 17.45739291 50.96484375 13.7890625 C51.35341049 12.64007477 51.74197723 11.49108704 52.14231873 10.30728149 C52.68276573 8.71585831 52.68276573 8.71585831 53.23413086 7.09228516 C53.71045204 5.68663803 53.71045204 5.68663803 54.19639587 4.25259399 C55 2 55 2 56 0 C61.61 0 67.22 0 73 0 C76.09218721 15.78130765 78.88411703 31.60766614 81.57421875 47.4621582 C82.14317647 50.81473071 82.71874271 54.16613521 83.29573441 57.51733303 C83.85258853 60.75950658 84.40240596 64.00287337 84.953125 67.24609375 C85.26240936 69.03665443 85.26240936 69.03665443 85.57794189 70.86338806 C85.76523865 71.97637772 85.9525354 73.08936737 86.14550781 74.23608398 C86.31109192 75.20754868 86.47667603 76.17901337 86.64727783 77.17991638 C87 80 87 80 87 86 C81.72 86 76.44 86 71 86 C68.47868683 75.61945841 66.57356203 65.21819689 64.8125 54.6875 C64.53746388 53.06048691 64.26207542 51.43353334 63.98632812 49.80664062 C63.3201665 45.87176613 62.65873742 41.93612388 62 38 C60.32079528 40.51880709 59.45829982 42.24444675 58.51953125 45.04077148 C58.10900513 46.25234169 58.10900513 46.25234169 57.69018555 47.48838806 C57.40054932 48.35718094 57.11091309 49.22597382 56.8125 50.12109375 C56.50932861 51.01740005 56.20615723 51.91370636 55.89379883 52.83717346 C54.92503204 55.70256306 53.96205062 58.5698491 53 61.4375 C52.03743387 64.30139868 51.07356948 67.16483451 50.10620117 70.02711487 C49.50447505 71.80797754 48.90557125 73.58979692 48.30981445 75.37266541 C48.03613037 76.18353104 47.76244629 76.99439667 47.48046875 77.82983398 C47.24223389 78.54026352 47.00399902 79.25069305 46.75854492 79.98265076 C45.98195877 82.04798063 44.98677997 84.02644006 44 86 C39.05 86 34.1 86 29 86 C27.06068684 80.32591172 25.12181911 74.65167149 23.18334961 68.97729492 C22.52494101 67.05017057 21.86641438 65.12308654 21.20776367 63.19604492 C20.25668192 60.41335682 19.30603604 57.63052013 18.35546875 54.84765625 C18.0647197 53.99728287 17.77397064 53.14690948 17.47441101 52.27076721 C17.19434708 51.45059616 16.91428314 50.63042511 16.62573242 49.78540039 C16.38368576 49.0770253 16.1416391 48.36865021 15.89225769 47.6388092 C14.58192054 43.76355009 13.29362346 39.88087039 12 36 C9.03 52.5 6.06 69 3 86 C-2.61 86 -8.22 86 -14 86 C-13.36113356 76.0682168 -11.81305982 66.41888735 -10.05859375 56.640625 C-9.76808661 54.99876122 -9.47806105 53.35681217 -9.18849182 51.71478271 C-8.43211928 47.43314135 -7.66929321 43.15267534 -6.9050293 38.87243652 C-6.12347268 34.48857728 -5.34814657 30.10361664 -4.57226562 25.71875 C-3.05420684 17.144753 -1.5287396 8.57209907 0 0 Z " fill="#FFFFFF" transform="translate(199,49)"/>
<path d="M0 0 C1.25804443 0.0012085 1.25804443 0.0012085 2.54150391 0.00244141 C8.4171605 0.06057108 14.04645997 0.40958466 19.6875 2.1875 C20.57566406 2.42210937 21.46382813 2.65671875 22.37890625 2.8984375 C24.6875 4.1875 24.6875 4.1875 25.47265625 6.796875 C25.56417969 7.83328125 25.65570313 8.8696875 25.75 9.9375 C26.40928155 15.28856188 27.50754489 17.94755985 30.6875 22.1875 C30.6875 23.5075 30.6875 24.8275 30.6875 26.1875 C27.60613039 27.11468689 26.07078753 27.33018368 23.01171875 26.19140625 C22.14160156 25.71574219 21.27148438 25.24007812 20.375 24.75 C19.49199219 24.27691406 18.60898438 23.80382812 17.69921875 23.31640625 C17.03535156 22.94386719 16.37148437 22.57132813 15.6875 22.1875 C15.1925 22.6825 15.1925 22.6825 14.6875 23.1875 C15.6775 24.1775 15.6775 24.1775 16.6875 25.1875 C16.749375 25.826875 16.81125 26.46625 16.875 27.125 C17.2771875 28.1459375 17.2771875 28.1459375 17.6875 29.1875 C19.33394661 29.89311997 20.98471955 30.59042474 22.65625 31.234375 C31.50733925 35.38757842 36.66348809 43.94346914 40.0625 52.75 C40.8255774 56.94692569 40.86100612 60.93660009 40.6875 65.1875 C30.16343717 64.83669791 21.22787549 60.56610687 13.9921875 52.8984375 C12.6875 51.1875 12.6875 51.1875 11.6328125 49.0390625 C10.82794497 47.01053233 10.82794497 47.01053233 8.6875 46.1875 C8.44902344 46.7753125 8.21054688 47.363125 7.96484375 47.96875 C3.66453203 55.43840461 -6.44294469 58.93905562 -14.3125 61.1875 C-19.68272953 62.49449295 -25.11982368 62.54768589 -30.62109375 62.80859375 C-34.14238463 63.17003842 -37.01756294 63.92961831 -40.3125 65.1875 C-40.27414496 54.37137959 -37.02607272 46.81091013 -31.125 37.875 C-20.85569444 28.06210802 -10.30394716 24.82291607 3.5065918 25.03344727 C5.23383108 25.07473503 6.9607359 25.12965555 8.6875 25.1875 C7.6975 22.7125 7.6975 22.7125 6.6875 20.1875 C-7.98194842 19.77938552 -20.19564587 22.03182961 -32 31.296875 C-42.3921893 41.19754183 -48.38433049 53.82990243 -48.75 68.25 C-48.55768306 74.87753756 -47.13591376 80.84806667 -45.3125 87.1875 C-44.58984375 89.90234375 -44.58984375 89.90234375 -44.3125 92.1875 C-45.3025 93.1775 -45.3025 93.1775 -46.3125 94.1875 C-48.625 94.1875 -48.625 94.1875 -51.3125 93.1875 C-52.59558968 91.71194687 -53.87543536 90.23054679 -55.06640625 88.6796875 C-57.6638458 85.569274 -60.63156736 84.34771944 -64.5 83.4375 C-67.3125 82.1875 -67.3125 82.1875 -68.6875 79.375 C-71.75780549 64.08677781 -67.53444388 46.69633344 -59.6796875 33.4296875 C-57.977055 30.93300218 -56.19254458 28.55284893 -54.3125 26.1875 C-53.79042969 25.50171875 -53.26835938 24.8159375 -52.73046875 24.109375 C-43.03764063 12.12894511 -28.17279177 3.39635624 -13.01953125 0.57421875 C-8.66263975 0.11970636 -4.37771493 -0.00436636 0 0 Z " fill="#FCFDFC" transform="translate(89.3125,22.8125)"/>
<path d="M0 0 C0.96381592 0.00757324 1.92763184 0.01514648 2.9206543 0.02294922 C15.6193843 0.31630155 26.06718294 4.31956167 35.1875 13.3125 C35.826875 14.01375 36.46625 14.715 37.125 15.4375 C35.58856148 19.11819887 33.34349055 21.42525204 30.5 24.1875 C29.68273437 24.98671875 28.86546875 25.7859375 28.0234375 26.609375 C27.39695312 27.21265625 26.77046875 27.8159375 26.125 28.4375 C22.27965381 26.62382198 18.92362645 24.29741406 15.44140625 21.875 C8.31767213 17.45420041 0.27122577 17.40078213 -7.875 18.4375 C-15.51235816 20.77113721 -21.05912452 25.19953288 -25.125 32.0625 C-28.5478288 38.66366983 -28.80838535 45.42804649 -27.44921875 52.72265625 C-25.44070907 58.92069532 -21.23887403 64.29573066 -15.74609375 67.79296875 C-7.18775366 72.15882548 3.01823261 73.31766237 12.296875 70.4609375 C16.912506 68.23505628 18.9671491 66.64796786 22.125 62.4375 C14.535 62.1075 6.945 61.7775 -0.875 61.4375 C-0.875 55.8275 -0.875 50.2175 -0.875 44.4375 C13.645 44.4375 28.165 44.4375 43.125 44.4375 C43.125 58.52675659 40.66402304 68.44329066 31.0546875 78.6328125 C20.05085728 89.02318877 9.13940223 89.91606182 -5.36328125 89.70703125 C-16.82532459 89.31485279 -25.34631475 85.01241008 -33.875 77.4375 C-43.03476411 67.61122498 -46.709293 55.67899547 -46.875 42.4375 C-46.2282472 31.06902293 -41.76963208 20.55544801 -33.9140625 12.25 C-23.90256602 3.35089202 -13.22709819 -0.14625839 0 0 Z " fill="#FFFFFF" transform="translate(409.875,46.5625)"/>
<path d="M0 0 C35.51724138 0 35.51724138 0 44.0625 7.625 C48.00309595 12.73072408 49.27482141 17.99545942 48.8359375 24.390625 C47.86756752 29.97299313 45.53364677 33.62943689 42 38 C42.68707031 38.54527344 43.37414062 39.09054688 44.08203125 39.65234375 C50.80493769 45.27881052 54.12786246 49.34353847 55.265625 58.02734375 C55.66736178 65.27295359 53.37830183 71.68076058 48.875 77.3125 C41.92611799 84.61027985 35.15884668 85.07646848 25 86 C16.75 86 8.5 86 0 86 C0 57.62 0 29.24 0 0 Z M18 17 C18 22.28 18 27.56 18 33 C19.588125 32.731875 21.17625 32.46375 22.8125 32.1875 C23.70582031 32.03667969 24.59914063 31.88585937 25.51953125 31.73046875 C28.22379946 30.9340937 29.28250855 30.19729858 31 28 C32.00635246 25.63537508 32.00635246 25.63537508 32 23 C30.24886475 19.28738773 30.24886475 19.28738773 27 17 C23.99525503 16.86440682 21.00931153 16.95700984 18 17 Z M18 49 C18 55.6 18 62.2 18 69 C28.49329903 69.07151239 28.49329903 69.07151239 37 64 C38.44682591 59.65952227 38.39617853 57.80759469 36.375 53.6875 C33.26231175 50.16524751 30.78691368 49.12057447 26.10546875 48.8046875 C25.14253906 48.82789063 24.17960937 48.85109375 23.1875 48.875 C20.6196875 48.936875 20.6196875 48.936875 18 49 Z " fill="#FFFFFF" transform="translate(298,49)"/>
<path d="M0 0 C2.77334714 2.05705218 5.08335566 4.16004695 7.359375 6.75 C4.97467794 12.0715161 1.03503113 16.34528053 -4.140625 19.0625 C-7.64705673 18.62419603 -9.10259078 16.72899718 -11.65234375 14.38671875 C-18.4949603 8.75399511 -26.40549787 8.03952728 -35.015625 8.30859375 C-43.19046067 9.30402094 -49.12460254 13.12059693 -54.234375 19.5078125 C-58.37140372 26.10407495 -59.60000075 33.50368397 -58.20703125 41.12109375 C-56.33762169 48.74967809 -52.74618136 53.63674601 -46.5234375 58.35546875 C-39.28740165 62.70439939 -30.82880672 63.20037299 -22.640625 61.75 C-17.26519746 59.91290333 -12.43931986 57.71098311 -8.5625 53.484375 C-6.640625 51.75 -6.640625 51.75 -4.69140625 51.73046875 C-1.91953914 53.10848268 -0.029387 54.88968727 2.171875 57.0625 C2.98269531 57.84238281 3.79351563 58.62226562 4.62890625 59.42578125 C6.359375 61.75 6.359375 61.75 6.39453125 63.796875 C2.31533243 71.49347655 -7.85722998 75.85298556 -15.640625 78.75 C-27.08053606 82.09429847 -43.12574267 81.21838788 -53.640625 75.75 C-64.17509693 69.90956483 -71.17940322 61.73765535 -74.94921875 50.29296875 C-78.52327923 37.14769548 -77.60569722 23.43990114 -70.890625 11.5 C-64.54403463 1.66900707 -55.25321377 -5.75011499 -43.796875 -8.77734375 C-27.58768689 -11.20470979 -13.73719687 -9.21106842 0 0 Z " fill="#FFFFFF" transform="translate(538.640625,56.25)"/>
<path d="M0 0 C3.39265269 1.13088423 3.9348413 1.94297711 6.0625 4.6875 C11.65048126 11.22239859 18.15338357 14.55426977 26.3125 17 C31.68995434 18.68391934 34.33008615 19.9568294 37 25 C37.06986631 29.05224576 36.69426899 31.11420853 34.1875 34.3125 C32 36 32 36 30.00390625 36.87890625 C27.64197991 38.20029584 27.01182185 39.26143817 25.75 41.625 C19.88045682 51.45514678 11.52654592 57.51126018 0.4375 60.3125 C-10.68732096 62.31224967 -21.18879634 60.29974495 -30.875 54.25 C-36.16217982 50.39415616 -41.06548717 45.96845253 -43.0625 39.625 C-43.371875 38.75875 -43.68125 37.8925 -44 37 C-46.92914165 35.82917122 -46.92914165 35.82917122 -50 35 C-52.68395527 32.58444025 -52.97531884 31.16968297 -53.5 27.5625 C-52.87064705 23.07836026 -51.41449364 21.85864584 -48 19 C-47.46375 18.4225 -46.9275 17.845 -46.375 17.25 C-43.29304512 14.44822284 -39.4389277 14.80800328 -35.5 14.625 C-22.70888715 13.75646765 -10.73582989 10.2794765 -1.47265625 1.0390625 C-0.98667969 0.69617188 -0.50070313 0.35328125 0 0 Z M-29 23 C-25.94729537 23.15811388 -25.94729537 23.15811388 -23 22 C-20.3125 22.9375 -20.3125 22.9375 -18 24 C-19.15684329 21.9004467 -19.15684329 21.9004467 -21 20 C-24.86837827 19.3230338 -26.57512836 19.93700424 -29 23 Z M2 22 C2.33 22.99 2.66 23.98 3 25 C3.33 24.34 3.66 23.68 4 23 C7.0625 22.375 7.0625 22.375 10 22 C10.33 22.99 10.66 23.98 11 25 C11.33 24.01 11.66 23.02 12 22 C10.11499729 19.68436913 10.11499729 19.68436913 7 19.75 C3.88500271 19.68436913 3.88500271 19.68436913 2 22 Z M-11 30 C-11 30.33 -11 30.66 -11 31 C-9.02 31 -7.04 31 -5 31 C-5 30.67 -5 30.34 -5 30 C-6.98 30 -8.96 30 -11 30 Z M5 36 C4.22822206 37.11017288 3.48278854 38.23871397 2.75 39.375 C0.48105989 42.58392958 -1.03246958 44.14981491 -5 45 C-10.11619379 45.45680302 -12.78619878 44.88946369 -17 42 C-17.66 42 -18.32 42 -19 42 C-19.66 40.35 -20.32 38.7 -21 37 C-21.66 37 -22.32 37 -23 37 C-22.71349017 40.43811794 -22.26566773 41.74171193 -19.75 44.1875 C-14.73464996 47.49307161 -11.05679367 48.52213738 -5 48 C0.80213385 46.19933777 3.7039171 43.94412436 7 39 C6.67 38.01 6.34 37.02 6 36 C5.67 36 5.34 36 5 36 Z " fill="#FAC94C" transform="translate(98,71)"/>
<path d="M0 0 C2.4375 0.125 2.4375 0.125 5 1 C6.3125 3.5625 6.3125 3.5625 7 6 C7.66 6 8.32 6 9 6 C9 6.66 9 7.32 9 8 C9.680625 8.268125 10.36125 8.53625 11.0625 8.8125 C14.39710809 10.16053306 17.69743237 11.57536298 21 13 C22.03416109 31.38508598 17.18538314 49.74987389 5.07104492 63.97705078 C-6.55979232 76.77979698 -22.79017747 86.95104672 -40.37890625 88.1640625 C-50.85215389 88.632315 -61.03767663 88.6269826 -71 85 C-71.80050781 84.75636719 -72.60101563 84.51273437 -73.42578125 84.26171875 C-75.71979801 83.40197179 -77.23795398 82.70595967 -79 81 C-79.83852713 78.4757292 -80.19036293 76.10059351 -80.5 73.4609375 C-81.05336246 70.73735664 -81.77699824 69.71241757 -83.6875 67.75 C-86 65 -86 65 -85.8125 61.625 C-85.544375 60.75875 -85.27625 59.8925 -85 59 C-82.625 58.125 -82.625 58.125 -79 58 C-76.40111014 59.31043854 -74.02887119 60.85265618 -71.5859375 62.43359375 C-60.97588497 68.86052889 -47.77117164 69.22467372 -35.88671875 66.8046875 C-23.71667525 63.41222612 -13.25057455 55.62868088 -6.5 44.9375 C-4.05970215 40.47182525 -2.32672922 35.90603469 -1 31 C-0.81308594 30.4121875 -0.62617188 29.824375 -0.43359375 29.21875 C0.20564748 25.94767777 0.14632198 22.69386278 0.125 19.375 C0.1237915 18.66657959 0.12258301 17.95815918 0.12133789 17.22827148 C0.08525002 12.34752589 -0.22425293 7.56385797 -0.87890625 2.72265625 C-0.93884766 1.86994141 -0.93884766 1.86994141 -1 1 C-0.67 0.67 -0.34 0.34 0 0 Z " fill="#FDFDFD" transform="translate(138,72)"/>
<path d="M0 0 C6.77681473 1.95774648 6.77681473 1.95774648 9 5 C9.0825 5.66 9.165 6.32 9.25 7 C9.4975 7.66 9.745 8.32 10 9 C11.64644661 9.70561997 13.29721955 10.40292474 14.96875 11.046875 C23.81983925 15.20007842 28.97598809 23.75596914 32.375 32.5625 C33.1380774 36.75942569 33.17350612 40.74910009 33 45 C22.47593717 44.64919791 13.54037549 40.37860687 6.3046875 32.7109375 C5 31 5 31 3.9453125 28.8515625 C3.14044497 26.82303233 3.14044497 26.82303233 1 26 C0.76152344 26.5878125 0.52304688 27.175625 0.27734375 27.78125 C-4.02296797 35.25090461 -14.13044469 38.75155562 -22 41 C-27.37022953 42.30699295 -32.80732368 42.36018589 -38.30859375 42.62109375 C-41.82988463 42.98253842 -44.70506294 43.74211831 -48 45 C-47.96164496 34.18387959 -44.71357272 26.62341013 -38.8125 17.6875 C-28.54319444 7.87460802 -17.99144716 4.63541607 -4.1809082 4.84594727 C-2.45366892 4.88723503 -0.7267641 4.94215555 1 5 C0.34 3.68 -0.32 2.36 -1 1 C-0.67 0.67 -0.34 0.34 0 0 Z " fill="#F8C331" transform="translate(97,43)"/>
<path d="M0 0 C0 0.99 0 1.98 0 3 C0.66 3 1.32 3 2 3 C2 5.97 2 8.94 2 12 C3.98 9.03 5.96 6.06 8 3 C11.43270443 3.06865409 14.05167789 3.18654085 16.73046875 5.484375 C21.59978875 11.11114478 23.54970582 15.39599838 23.46875 22.89453125 C22.62443473 28.4881199 19.83187047 33.17064946 17 38 C12.96782169 38 11.95927649 36.54363327 9 33.875 C7.700625 32.72644531 7.700625 32.72644531 6.375 31.5546875 C2.3083708 27.18038569 0.69926469 22.87382338 0 17 C-0.556875 18.0725 -1.11375 19.145 -1.6875 20.25 C-5.60448561 26.98613095 -11.62961285 30.02511421 -19 32 C-23.97323411 32.69801991 -28.98387572 32.86623669 -34 33 C-34.63911757 23.98134098 -33.47502231 15.39661088 -28.48828125 7.65234375 C-27.99714844 7.10707031 -27.50601562 6.56179687 -27 6 C-26.34 6 -25.68 6 -25 6 C-25 5.34 -25 4.68 -25 4 C-17.24583462 -0.71331621 -8.96722426 -2.98907475 0 0 Z " fill="#79E251" transform="translate(35,132)"/>
<path d="M0 0 C0.76380012 12.78657971 -2.30923496 23.85166672 -10.48828125 33.8125 C-16.3123642 39.59322749 -24.68113617 41.97738815 -32.73046875 42.01953125 C-35.84631356 41.78507837 -38.91087921 41.46513766 -42 41 C-42 39.68 -42 38.36 -42 37 C-42.99 37 -43.98 37 -45 37 C-45.56302097 27.05329612 -43.25391765 18.26128795 -37.21484375 10.23046875 C-27.1398767 0.0844261 -13.34346217 -0.34165337 0 0 Z M-33 30 C-33.33 30.66 -33.66 31.32 -34 32 C-33.01 31.67 -32.02 31.34 -31 31 C-31.66 30.67 -32.32 30.34 -33 30 Z M-36 32 C-36.33 32.66 -36.66 33.32 -37 34 C-36.01 33.67 -35.02 33.34 -34 33 C-34.66 32.67 -35.32 32.34 -36 32 Z M-40.625 35.5 C-41.07875 35.995 -41.5325 36.49 -42 37 C-40.02463255 36.65213292 -40.02463255 36.65213292 -38 36 C-37.67 35.34 -37.34 34.68 -37 34 C-39.12364481 33.77390663 -39.12364481 33.77390663 -40.625 35.5 Z " fill="#7DE252" transform="translate(182,16)"/>
<path d="M0 0 C0.86625 0.763125 1.7325 1.52625 2.625 2.3125 C3.470625 3.055 4.31625 3.7975 5.1875 4.5625 C9.23508605 9.12900734 12.625 13.07468572 12.625 19.3125 C4.24756882 22.36544672 -3.39376494 23.64082935 -12.125 21.3125 C-16.8498898 18.40487551 -20.87064187 14.32121625 -23.375 9.3125 C-23.50915472 6.6401379 -23.41818541 3.98999512 -23.375 1.3125 C-15.7632388 -1.84497131 -7.67506404 -3.83753202 0 0 Z " fill="#7DE450" transform="translate(165.375,60.6875)"/>
<path d="M0 0 C6.16089074 2.6876369 12.4201163 8.77792754 15 15 C16.93925713 22.12962179 15.41924021 27.57227246 12 34 C10.546875 36.26953125 10.546875 36.26953125 9 38 C4.91834173 38.51020728 3.47042703 38.31361802 0 36 C0 35.34 0 34.68 0 34 C-0.99 33.67 -1.98 33.34 -3 33 C-6.50229599 28.32385755 -8.44896991 23.42448658 -8.1875 17.5625 C-7.30410384 11.43120589 -4.45400284 4.45400284 0 0 Z " fill="#7BE251" transform="translate(123,12)"/>
<path d="M0 0 C2.82400223 3.31478324 5.48709714 6.56339026 6 11 C5.41015625 13.1015625 5.41015625 13.1015625 4 15 C-1.12031557 17.73190004 -6.93143707 19.63187409 -12.75 18.6875 C-20.32237424 16.34171015 -25.20145959 10.35286251 -29.1875 3.796875 C-30 2 -30 2 -30 -1 C-20.04876709 -4.5161023 -9.05681062 -7.50421451 0 0 Z " fill="#7AE450" transform="translate(33,111)"/>
<path d="M0 0 C2.31 0.33 4.62 0.66 7 1 C7 1.99 7 2.98 7 4 C7.66 4 8.32 4 9 4 C9 6.31 9 8.62 9 11 C8.7525 10.401875 8.505 9.80375 8.25 9.1875 C6.83555909 6.71222841 5.27139812 5.66569196 3 4 C3 3.34 3 2.68 3 2 C2.01 1.34 1.02 0.68 0 0 Z " fill="#61C952" transform="translate(28,131)"/>
<path d="M0 0 C0 3 0 3 -1.96875 5.04296875 C-2.8040625 5.75066406 -3.639375 6.45835937 -4.5 7.1875 C-5.3353125 7.90292969 -6.170625 8.61835938 -7.03125 9.35546875 C-7.6809375 9.89816406 -8.330625 10.44085938 -9 11 C-9 8 -9 8 -7 5 C-6.34 5 -5.68 5 -5 5 C-5 4.34 -5 3.68 -5 3 C-2.5 1.375 -2.5 1.375 0 0 Z " fill="#8DEF57" transform="translate(15,133)"/>
<path d="M0 0 C2.31 0.33 4.62 0.66 7 1 C6.01 1.33 5.02 1.66 4 2 C2.79117904 4.00016466 2.79117904 4.00016466 2 6 C1.67 5.01 1.34 4.02 1 3 C0.34 3 -0.32 3 -1 3 C-0.67 2.01 -0.34 1.02 0 0 Z " fill="#6CCD57" transform="translate(43,135)"/>
<path d="M0 0 C1.32 0.66 2.64 1.32 4 2 C-0.75 6 -0.75 6 -3 6 C-1.125 1.125 -1.125 1.125 0 0 Z " fill="#99F85C" transform="translate(123,12)"/>
<path d="M0 0 C0.99 0 1.98 0 3 0 C3 2.31 3 4.62 3 7 C2.34 7 1.68 7 1 7 C0.67 4.69 0.34 2.38 0 0 Z " fill="#67C93C" transform="translate(127,37)"/>
</svg>
