<?xml version="1.0" encoding="UTF-8"?>
<svg version="1.1" xmlns="http://www.w3.org/2000/svg" width="575" height="183">
<path d="M0 0 C3.58773727 1.80306796 6.09324337 4.13289698 8.796875 7.03125 C9.27769531 7.53011719 9.75851563 8.02898438 10.25390625 8.54296875 C11.52614562 9.86482191 12.78717083 11.19744559 14.046875 12.53125 C15.036875 13.52125 15.036875 13.52125 16.046875 14.53125 C16.82998047 13.95117188 16.82998047 13.95117188 17.62890625 13.359375 C27.56428421 6.32979059 37.54036829 3.42711982 49.671875 3.28125 C50.96351563 3.25546875 52.25515625 3.2296875 53.5859375 3.203125 C57.19800479 3.54557833 58.56848289 3.94405044 61.046875 6.53125 C64.33155893 16.38530179 61.042452 27.60359911 56.859375 36.71875 C54.42600928 41.33915914 51.23619377 44.97668714 47.62109375 48.71875 C45.82829651 50.38279828 45.82829651 50.38279828 46.046875 52.53125 C47.21047824 53.66062962 48.37428585 54.78979936 49.5390625 55.91796875 C54.23482628 60.94219269 58.18314919 66.44499226 58.046875 73.53125 C56.52625189 77.07576294 55.57470684 78.29386171 52.015625 79.89453125 C50.8709375 80.20777344 49.72625 80.52101563 48.546875 80.84375 C47.4021875 81.16988281 46.2575 81.49601562 45.078125 81.83203125 C42.046875 82.53125 42.046875 82.53125 39.046875 82.53125 C39.09328125 83.0675 39.1396875 83.60375 39.1875 84.15625 C40.00080605 101.81661 32.03840845 121.32427117 20.50390625 134.41796875 C7.04433513 148.333153 -10.91779997 159.12627607 -30.7109375 159.734375 C-42.62839639 159.90481414 -52.81982184 159.10385666 -63.953125 154.53125 C-64.324375 156.078125 -64.324375 156.078125 -64.703125 157.65625 C-66.13033627 162.58661619 -68.39222938 166.25051513 -72.390625 169.53125 C-74.953125 170.53125 -74.953125 170.53125 -77.2890625 169.8671875 C-80.3717576 168.32131987 -82.59253602 166.47689987 -85.140625 164.15625 C-86.00042969 163.38539063 -86.86023438 162.61453125 -87.74609375 161.8203125 C-89.73797362 159.75439816 -90.87847443 158.1608419 -91.953125 155.53125 C-92.74976563 155.94117188 -93.54640625 156.35109375 -94.3671875 156.7734375 C-95.42679688 157.31226563 -96.48640625 157.85109375 -97.578125 158.40625 C-98.62226562 158.93992188 -99.66640625 159.47359375 -100.7421875 160.0234375 C-106.40832514 162.68417853 -111.32240307 163.85500843 -117.578125 164.28125 C-118.86976562 164.37921875 -120.16140625 164.4771875 -121.4921875 164.578125 C-124.87514085 164.53230622 -126.11195625 164.11944233 -128.953125 162.53125 C-129.07079216 159.05237528 -129.14085815 155.5740223 -129.203125 152.09375 C-129.25339844 150.63291992 -129.25339844 150.63291992 -129.3046875 149.14257812 C-129.41681558 140.76100444 -127.55661746 133.81208065 -121.828125 127.46875 C-121.33054687 126.90027344 -120.83296875 126.33179688 -120.3203125 125.74609375 C-118.953125 124.53125 -118.953125 124.53125 -116.953125 124.53125 C-117.56800781 123.81839844 -118.18289062 123.10554688 -118.81640625 122.37109375 C-129.02509549 110.27371559 -129.02509549 110.27371559 -128.890625 103.28125 C-127.7693413 99.99215116 -126.84105155 99.36493347 -123.953125 97.53125 C-121.48046875 96.58203125 -121.48046875 96.58203125 -118.890625 95.84375 C-118.03339844 95.59238281 -117.17617187 95.34101562 -116.29296875 95.08203125 C-113.953125 94.53125 -113.953125 94.53125 -110.953125 94.53125 C-111.283125 93.54125 -111.613125 92.55125 -111.953125 91.53125 C-113.37190981 73.05976318 -107.6797645 53.91206716 -95.953125 39.53125 C-94.95152344 38.28601562 -94.95152344 38.28601562 -93.9296875 37.015625 C-81.79095998 22.72961355 -64.71219872 12.68393059 -45.953125 10.53125 C-42.91002987 10.37418478 -39.87494392 10.34128219 -36.828125 10.34375 C-36.00078857 10.34310547 -35.17345215 10.34246094 -34.32104492 10.34179688 C-27.37863654 10.4009785 -20.76874516 11.16078419 -13.953125 12.53125 C-13.57800781 11.84417969 -13.20289062 11.15710937 -12.81640625 10.44921875 C-12.30464844 9.54816406 -11.79289062 8.64710937 -11.265625 7.71875 C-10.76675781 6.82542969 -10.26789063 5.93210937 -9.75390625 5.01171875 C-6.97422764 1.18287728 -4.84852493 -0.76960713 0 0 Z M-2.953125 48.53125 C-2.55480469 49.03914063 -2.15648438 49.54703125 -1.74609375 50.0703125 C1.33253675 54.07028498 3.96283114 57.90004143 6.046875 62.53125 C8.09524382 61.96762698 8.09524382 61.96762698 10.046875 60.53125 C11.33960932 56.89543471 11.37313911 55.23038738 9.734375 51.71875 C5.81699992 48.53018889 1.97275599 48.6346559 -2.953125 48.53125 Z M-75.953125 108.53125 C-76.406875 109.315 -76.860625 110.09875 -77.328125 110.90625 C-78.953125 113.53125 -78.953125 113.53125 -81.953125 115.53125 C-82.95481031 117.47957935 -82.95481031 117.47957935 -83.640625 119.65625 C-83.89199219 120.38070312 -84.14335938 121.10515625 -84.40234375 121.8515625 C-84.58410156 122.40585938 -84.76585937 122.96015625 -84.953125 123.53125 C-80.27406166 123.08134006 -77.55347282 122.53153985 -73.953125 119.53125 C-72.29776385 118.83698659 -70.63184282 118.16696118 -68.953125 117.53125 C-69.92810645 116.0285263 -70.90821889 114.52913037 -71.890625 113.03125 C-72.43589844 112.1959375 -72.98117188 111.360625 -73.54296875 110.5 C-74.00832031 109.8503125 -74.47367188 109.200625 -74.953125 108.53125 C-75.283125 108.53125 -75.613125 108.53125 -75.953125 108.53125 Z " fill="#070805" transform="translate(128.953125,6.46875)"/>
<path d="M0 0 C5.94 0 11.88 0 18 0 C18.54003662 1.6305835 19.08007324 3.26116699 19.63647461 4.94116211 C21.41814788 10.31838552 23.20257986 15.69468797 24.98891354 21.07036495 C26.0722438 24.33080887 27.15445074 27.59161683 28.23413086 30.85327148 C29.47440019 34.59989486 30.7194831 38.34490946 31.96484375 42.08984375 C32.35341049 43.26586655 32.74197723 44.44188934 33.14231873 45.65354919 C33.50261673 46.73459427 33.86291473 47.81563934 34.23413086 48.92944336 C34.55167831 49.88652695 34.86922577 50.84361053 35.19639587 51.82969666 C35.80910063 53.94829336 35.80910063 53.94829336 37 55 C37.22328476 54.34045319 37.44656952 53.68090637 37.67662048 53.00137329 C39.77928169 46.79129437 41.88332 40.58168398 43.98891354 34.37259865 C45.07141605 31.1802977 46.15338182 27.98781693 47.23413086 24.79492188 C48.47635543 21.12584415 49.72041434 17.45739291 50.96484375 13.7890625 C51.35341049 12.64007477 51.74197723 11.49108704 52.14231873 10.30728149 C52.68276573 8.71585831 52.68276573 8.71585831 53.23413086 7.09228516 C53.71045204 5.68663803 53.71045204 5.68663803 54.19639587 4.25259399 C55 2 55 2 56 0 C61.61 0 67.22 0 73 0 C76.09218721 15.78130765 78.88411703 31.60766614 81.57421875 47.4621582 C82.14317647 50.81473071 82.71874271 54.16613521 83.29573441 57.51733303 C83.85258853 60.75950658 84.40240596 64.00287337 84.953125 67.24609375 C85.26240936 69.03665443 85.26240936 69.03665443 85.57794189 70.86338806 C85.76523865 71.97637772 85.9525354 73.08936737 86.14550781 74.23608398 C86.31109192 75.20754868 86.47667603 76.17901337 86.64727783 77.17991638 C87 80 87 80 87 86 C81.72 86 76.44 86 71 86 C68.47868683 75.61945841 66.57356203 65.21819689 64.8125 54.6875 C64.53746388 53.06048691 64.26207542 51.43353334 63.98632812 49.80664062 C63.3201665 45.87176613 62.65873742 41.93612388 62 38 C60.32079528 40.51880709 59.45829982 42.24444675 58.51953125 45.04077148 C58.10900513 46.25234169 58.10900513 46.25234169 57.69018555 47.48838806 C57.40054932 48.35718094 57.11091309 49.22597382 56.8125 50.12109375 C56.50932861 51.01740005 56.20615723 51.91370636 55.89379883 52.83717346 C54.92503204 55.70256306 53.96205062 58.5698491 53 61.4375 C52.03743387 64.30139868 51.07356948 67.16483451 50.10620117 70.02711487 C49.50447505 71.80797754 48.90557125 73.58979692 48.30981445 75.37266541 C48.03613037 76.18353104 47.76244629 76.99439667 47.48046875 77.82983398 C47.24223389 78.54026352 47.00399902 79.25069305 46.75854492 79.98265076 C45.98195877 82.04798063 44.98677997 84.02644006 44 86 C39.05 86 34.1 86 29 86 C27.06068684 80.32591172 25.12181911 74.65167149 23.18334961 68.97729492 C22.52494101 67.05017057 21.86641438 65.12308654 21.20776367 63.19604492 C20.25668192 60.41335682 19.30603604 57.63052013 18.35546875 54.84765625 C18.0647197 53.99728287 17.77397064 53.14690948 17.47441101 52.27076721 C17.19434708 51.45059616 16.91428314 50.63042511 16.62573242 49.78540039 C16.38368576 49.0770253 16.1416391 48.36865021 15.89225769 47.6388092 C14.58192054 43.76355009 13.29362346 39.88087039 12 36 C9.03 52.5 6.06 69 3 86 C-2.61 86 -8.22 86 -14 86 C-13.36113356 76.0682168 -11.81305982 66.41888735 -10.05859375 56.640625 C-9.76808661 54.99876122 -9.47806105 53.35681217 -9.18849182 51.71478271 C-8.43211928 47.43314135 -7.66929321 43.15267534 -6.9050293 38.87243652 C-6.12347268 34.48857728 -5.34814657 30.10361664 -4.57226562 25.71875 C-3.05420684 17.144753 -1.5287396 8.57209907 0 0 Z " fill="#000000" transform="translate(199,49)"/>
<path d="M0 0 C0.96381592 0.00757324 1.92763184 0.01514648 2.9206543 0.02294922 C15.6193843 0.31630155 26.06718294 4.31956167 35.1875 13.3125 C35.826875 14.01375 36.46625 14.715 37.125 15.4375 C35.58856148 19.11819887 33.34349055 21.42525204 30.5 24.1875 C29.68273437 24.98671875 28.86546875 25.7859375 28.0234375 26.609375 C27.39695312 27.21265625 26.77046875 27.8159375 26.125 28.4375 C22.27965381 26.62382198 18.92362645 24.29741406 15.44140625 21.875 C8.31767213 17.45420041 0.27122577 17.40078213 -7.875 18.4375 C-15.51235816 20.77113721 -21.05912452 25.19953288 -25.125 32.0625 C-28.5478288 38.66366983 -28.80838535 45.42804649 -27.44921875 52.72265625 C-25.44070907 58.92069532 -21.23887403 64.29573066 -15.74609375 67.79296875 C-7.18775366 72.15882548 3.01823261 73.31766237 12.296875 70.4609375 C16.912506 68.23505628 18.9671491 66.64796786 22.125 62.4375 C14.535 62.1075 6.945 61.7775 -0.875 61.4375 C-0.875 55.8275 -0.875 50.2175 -0.875 44.4375 C13.645 44.4375 28.165 44.4375 43.125 44.4375 C43.125 58.52675659 40.66402304 68.44329066 31.0546875 78.6328125 C20.05085728 89.02318877 9.13940223 89.91606182 -5.36328125 89.70703125 C-16.82532459 89.31485279 -25.34631475 85.01241008 -33.875 77.4375 C-43.03476411 67.61122498 -46.709293 55.67899547 -46.875 42.4375 C-46.2282472 31.06902293 -41.76963208 20.55544801 -33.9140625 12.25 C-23.90256602 3.35089202 -13.22709819 -0.14625839 0 0 Z " fill="#000000" transform="translate(409.875,46.5625)"/>
<path d="M0 0 C35.51724138 0 35.51724138 0 44.0625 7.625 C48.00309595 12.73072408 49.27482141 17.99545942 48.8359375 24.390625 C47.86756752 29.97299313 45.53364677 33.62943689 42 38 C42.68707031 38.54527344 43.37414062 39.09054688 44.08203125 39.65234375 C50.80493769 45.27881052 54.12786246 49.34353847 55.265625 58.02734375 C55.66736178 65.27295359 53.37830183 71.68076058 48.875 77.3125 C41.92611799 84.61027985 35.15884668 85.07646848 25 86 C16.75 86 8.5 86 0 86 C0 57.62 0 29.24 0 0 Z M18 17 C18 22.28 18 27.56 18 33 C19.588125 32.731875 21.17625 32.46375 22.8125 32.1875 C23.70582031 32.03667969 24.59914063 31.88585937 25.51953125 31.73046875 C28.22379946 30.9340937 29.28250855 30.19729858 31 28 C32.00635246 25.63537508 32.00635246 25.63537508 32 23 C30.24886475 19.28738773 30.24886475 19.28738773 27 17 C23.99525503 16.86440682 21.00931153 16.95700984 18 17 Z M18 49 C18 55.6 18 62.2 18 69 C28.49329903 69.07151239 28.49329903 69.07151239 37 64 C38.44682591 59.65952227 38.39617853 57.80759469 36.375 53.6875 C33.26231175 50.16524751 30.78691368 49.12057447 26.10546875 48.8046875 C25.14253906 48.82789063 24.17960937 48.85109375 23.1875 48.875 C20.6196875 48.936875 20.6196875 48.936875 18 49 Z " fill="#000000" transform="translate(298,49)"/>
<path d="M0 0 C2.77334714 2.05705218 5.08335566 4.16004695 7.359375 6.75 C4.97467794 12.0715161 1.03503113 16.34528053 -4.140625 19.0625 C-7.64705673 18.62419603 -9.10259078 16.72899718 -11.65234375 14.38671875 C-18.4949603 8.75399511 -26.40549787 8.03952728 -35.015625 8.30859375 C-43.19046067 9.30402094 -49.12460254 13.12059693 -54.234375 19.5078125 C-58.37140372 26.10407495 -59.60000075 33.50368397 -58.20703125 41.12109375 C-56.33762169 48.74967809 -52.74618136 53.63674601 -46.5234375 58.35546875 C-39.28740165 62.70439939 -30.82880672 63.20037299 -22.640625 61.75 C-17.26519746 59.91290333 -12.43931986 57.71098311 -8.5625 53.484375 C-6.640625 51.75 -6.640625 51.75 -4.69140625 51.73046875 C-1.91953914 53.10848268 -0.029387 54.88968727 2.171875 57.0625 C2.98269531 57.84238281 3.79351563 58.62226562 4.62890625 59.42578125 C6.359375 61.75 6.359375 61.75 6.39453125 63.796875 C2.31533243 71.49347655 -7.85722998 75.85298556 -15.640625 78.75 C-27.08053606 82.09429847 -43.12574267 81.21838788 -53.640625 75.75 C-64.17509693 69.90956483 -71.17940322 61.73765535 -74.94921875 50.29296875 C-78.52327923 37.14769548 -77.60569722 23.43990114 -70.890625 11.5 C-64.54403463 1.66900707 -55.25321377 -5.75011499 -43.796875 -8.77734375 C-27.58768689 -11.20470979 -13.73719687 -9.21106842 0 0 Z " fill="#000000" transform="translate(538.640625,56.25)"/>
<path d="M0 0 C0.66 0 1.32 0 2 0 C2.85995524 1.15359849 3.66233521 2.35029868 4.4375 3.5625 C10.61439579 11.99232154 19.35296596 15.56568761 29.25 17.98046875 C32.4023665 19.14917281 33.39558737 20.08387164 35 23 C35.5 26.4375 35.5 26.4375 35 30 C32.45862841 33.15954305 30.85377341 34.71540886 27 36 C25.56435453 38.12198737 25.56435453 38.12198737 24.25 40.6875 C19.14510762 49.47091777 11.77884093 54.29948535 2.2109375 57.62109375 C-8.98794724 59.54033725 -20.67391593 58.89418473 -30.125 52.3125 C-35.08676681 48.33120208 -39.43658297 43.70591409 -42.625 38.1875 C-44.33570766 35.46591963 -46.24141146 34.58618841 -49 33 C-50.875 31.3125 -50.875 31.3125 -52 29 C-52.1424993 26.18421392 -51.85081105 23.68947654 -51 21 C-49.125 19 -49.125 19 -47 18 C-46.01 18 -45.02 18 -44 18 C-43.67 17.01 -43.34 16.02 -43 15 C-41.85402344 14.95101562 -40.70804688 14.90203125 -39.52734375 14.8515625 C-37.99737465 14.77647199 -36.46742782 14.70092694 -34.9375 14.625 C-33.80924805 14.57859375 -33.80924805 14.57859375 -32.65820312 14.53125 C-24.69821568 14.11774416 -18.26495392 11.89938971 -11.3125 8.125 C-10.66216797 7.78597656 -10.01183594 7.44695312 -9.34179688 7.09765625 C-5.63535722 5.1103094 -2.93200441 3.06246831 0 0 Z " fill="#F4C54A" transform="translate(101,72)"/>
<path d="M0 0 C2.41806428 0.38668405 3.69150686 0.668913 5.38671875 2.48828125 C6.03060547 3.39126953 6.03060547 3.39126953 6.6875 4.3125 C10.0698701 8.53828887 13.98753203 10.20665035 19 12 C19.83462144 32.23956987 16.24538818 47.63546224 2.5 63.375 C-6.91725998 73.34146554 -15.95559445 79.69572209 -29 84 C-30.38106934 84.51228149 -30.38106934 84.51228149 -31.79003906 85.03491211 C-37.17018654 86.65247546 -42.5442808 86.36892079 -48.125 86.375 C-49.28515625 86.39949219 -50.4453125 86.42398438 -51.640625 86.44921875 C-60.98029923 86.48055994 -69.8493381 84.80329796 -78 80 C-78.65234375 77.828125 -78.65234375 77.828125 -78.9375 75.25 C-79.5129716 71.54673367 -80.09367288 69.4167192 -82.6875 66.6875 C-85 64 -85 64 -84.8125 61.125 C-84.544375 60.42375 -84.27625 59.7225 -84 59 C-80.92461982 58.05162073 -79.50512195 57.7654505 -76.53515625 59.14453125 C-75.31119141 59.97017578 -75.31119141 59.97017578 -74.0625 60.8125 C-67.49263402 64.9986093 -61.7605576 66.51302242 -54 67 C-53.05519775 67.08290283 -53.05519775 67.08290283 -52.09130859 67.16748047 C-38.40017112 68.28544751 -28.03227033 65.44359169 -17.17578125 56.734375 C-15 55 -15 55 -13 55 C-12.59007812 54.11248047 -12.59007812 54.11248047 -12.171875 53.20703125 C-11.03932297 51.07405825 -9.81324265 49.51548536 -8.25 47.6875 C0.09561636 36.56686342 1.98030517 25.54477987 1 12 C0.91878906 10.78699219 0.83757812 9.57398437 0.75390625 8.32421875 C0.54152038 5.54359758 0.29410374 2.77297816 0 0 Z " fill="#F5F5F5" transform="translate(141,73)"/>
<path d="M0 0 C3.27615529 2.75886761 3.29724262 5.22764685 3.87109375 9.359375 C4.39060367 12.08176807 5.23974361 14.01618323 6.5625 16.4375 C7.160625 17.613125 7.75875 18.78875 8.375 20 C7.88 21.485 7.88 21.485 7.375 23 C2.625 22.125 2.625 22.125 0.375 21 C0.375 20.34 0.375 19.68 0.375 19 C-0.31207031 18.86722656 -0.99914062 18.73445313 -1.70703125 18.59765625 C-2.60808594 18.42105469 -3.50914063 18.24445312 -4.4375 18.0625 C-5.33082031 17.88847656 -6.22414063 17.71445312 -7.14453125 17.53515625 C-9.625 17 -9.625 17 -12.625 16 C-15.21962456 15.90284445 -17.7811562 15.86080013 -20.375 15.875 C-21.0659375 15.87113281 -21.756875 15.86726563 -22.46875 15.86328125 C-36.74484049 15.89011601 -48.03344524 21.40239105 -58.21484375 31.25390625 C-66.71388707 40.93758122 -71.19938052 51.60255224 -71.0625 64.375 C-71.06000244 65.303125 -71.05750488 66.23125 -71.05493164 67.1875 C-70.93879965 73.05087522 -70.32730388 77.86257088 -67.40234375 83.0625 C-66.35928252 85.66229081 -66.89380899 87.3511571 -67.625 90 C-68.945 90 -70.265 90 -71.625 90 C-72.81431894 88.54638796 -73.99858161 87.08777522 -75.13671875 85.59375 C-78.22263967 82.28914177 -82.6659276 80.77101239 -86.80859375 79.140625 C-88.625 78 -88.625 78 -89.36328125 76.3828125 C-91.47333707 57.17185656 -87.49991001 39.5504774 -75.625 24 C-56.12222 1.13391039 -29.15648847 -8.04316923 0 0 Z " fill="#F4F4F4" transform="translate(113.625,26)"/>
<path d="M0 0 C3.25511789 0.56122722 4.99840071 1.33120095 7 4 C7.6875 6.6875 7.6875 6.6875 8 9 C8.804375 9.020625 9.60875 9.04125 10.4375 9.0625 C17.62419775 10.95373625 22.56017664 15.79059462 26.4375 22 C30.10886871 28.73253764 31.26585557 34.42311623 31 42 C20.59310491 41.66429371 13.54490314 37.05319408 6.375 29.7109375 C4.92183118 27.90273312 3.95697804 26.10719203 3 24 C-0.20660508 24.58428379 -1.84736899 25.50809671 -4.1875 27.75 C-15.15511853 37.3987277 -27.9887057 39.11830229 -42.234375 39.7890625 C-44.95812626 39.82160605 -44.95812626 39.82160605 -47 41 C-47.64602795 30.66355273 -44.81669475 23.75048855 -38 16 C-31.41178966 8.74996031 -22.85371485 4.22953401 -12.96875 3.66015625 C-7.9104413 3.54788425 -2.87817238 3.51586775 2 5 C1.34 3.35 0.68 1.7 0 0 Z " fill="#F3BF30" transform="translate(101,45)"/>
<path d="M0 0 C0.66916836 11.37586218 -2.23408461 22.74616954 -9 32 C-14.91580381 37.77660842 -20.61815326 40.24233783 -28.83789062 40.17578125 C-30.06282227 40.15064453 -30.06282227 40.15064453 -31.3125 40.125 C-32.14845703 40.11597656 -32.98441406 40.10695312 -33.84570312 40.09765625 C-35.89725969 40.07420989 -37.94866777 40.03834266 -40 40 C-40 39.34 -40 38.68 -40 38 C-38.12374332 36.65030568 -36.1959778 35.37207028 -34.25 34.125 C-26.91276452 29.28007912 -20.99754884 23.38657903 -15 17 C-15.70640625 17.56976563 -16.4128125 18.13953125 -17.140625 18.7265625 C-38.86597938 36 -38.86597938 36 -43 36 C-43.49111032 27.16001431 -41.73146481 18.97070045 -36 12 C-25.85186209 1.71891705 -14.06906144 -0.54933429 0 0 Z " fill="#79DA4F" transform="translate(184,16)"/>
<path d="M0 0 C1.06863281 0.01804688 2.13726563 0.03609375 3.23828125 0.0546875 C4.04652344 0.07789063 4.85476562 0.10109375 5.6875 0.125 C5.6875 1.115 5.6875 2.105 5.6875 3.125 C3.8515625 4.81640625 3.8515625 4.81640625 1.3125 6.6875 C-4.38102506 11.05524708 -9.34122352 15.96333421 -14.3125 21.125 C-11.52355699 18.91373279 -8.78077755 16.6815355 -6.125 14.3125 C5.70396419 4.125 5.70396419 4.125 9.6875 4.125 C9.51650937 12.58126371 8.23768281 18.55148292 2.1640625 24.65625 C-5.91149013 31.70698631 -14.04821695 31.27447985 -24.3125 31.125 C-24.75130228 21.91015212 -23.17368368 14.49334519 -17.3125 7.125 C-12.03587217 1.87752481 -7.43198 -0.16334022 0 0 Z " fill="#74D94E" transform="translate(29.3125,131.875)"/>
<path d="M0 0 C5.70873072 3.15275069 10.43260831 8.46880448 12.9375 14.5 C12.9375 15.49 12.9375 16.48 12.9375 17.5 C11.46780271 18.18729059 9.98596164 18.84861956 8.5 19.5 C7.67628906 19.87125 6.85257813 20.2425 6.00390625 20.625 C2.9375 21.5 2.9375 21.5 -6.0625 21.5 C-6.0625 27.44 -6.0625 33.38 -6.0625 39.5 C-6.3925 39.5 -6.7225 39.5 -7.0625 39.5 C-7.0625 34.22 -7.0625 28.94 -7.0625 23.5 C-8.3825 22.84 -9.7025 22.18 -11.0625 21.5 C-10.4025 21.5 -9.7425 21.5 -9.0625 21.5 C-9.0625 20.84 -9.0625 20.18 -9.0625 19.5 C-10.18205078 19.14228516 -10.18205078 19.14228516 -11.32421875 18.77734375 C-14.48107071 17.30474661 -15.79216132 15.82600492 -17.875 13.0625 C-18.47957031 12.28003906 -19.08414063 11.49757813 -19.70703125 10.69140625 C-21.0625 8.5 -21.0625 8.5 -21.0625 5.5 C-14.14586373 6.59890483 -7.63513201 8.06569185 -1.0625 10.5 C-7.25729329 7.55223604 -13.45007278 5.32221376 -20.0625 3.5 C-20.0625 2.84 -20.0625 2.18 -20.0625 1.5 C-13.03777873 -1.51059483 -7.26851645 -3.15109095 0 0 Z " fill="#78DB4C" transform="translate(167.0625,61.5)"/>
<path d="M0 0 C4.16296461 1.35369129 6.38753152 3.08643889 9.25 6.375 C9.93578125 7.14585938 10.6215625 7.91671875 11.328125 8.7109375 C14.61023836 13.20467215 14.76867038 18.60259709 14 24 C10.51041667 33.24479167 10.51041667 33.24479167 7 35 C6.67 32.03 6.34 29.06 6 26 C5.67 28.97 5.34 31.94 5 35 C1.17196864 33.08598432 0.16585646 32.29106918 -2.1875 29 C-2.69667969 28.29875 -3.20585938 27.5975 -3.73046875 26.875 C-7.18634635 21.77093462 -6.63418671 15.96681043 -6 10 C-4.5948194 6.33232644 -2.80573415 2.80573415 0 0 Z " fill="#75D64C" transform="translate(126,14)"/>
<path d="M0 0 C5.0017554 2.5008777 8.16274339 5.14821431 11 10 C12.9018995 18.09151327 10.51649045 24.12575177 6.3125 31.015625 C5.879375 31.67046875 5.44625 32.3253125 5 33 C-0.34921332 31.15950796 -2.65646967 28.39078552 -6 24 C-6.61875 23.21625 -7.2375 22.4325 -7.875 21.625 C-9.80028736 17.13266284 -9.97493234 12.52813338 -8.203125 7.93359375 C-6.48525423 4.76874721 -5.0142156 3.00947706 -2 1 C-1.67 3.97 -1.34 6.94 -1 10 C-0.67 6.7 -0.34 3.4 0 0 Z " fill="#74D94D" transform="translate(49,136)"/>
<path d="M0 0 C3.58319682 3.0400875 3.69189321 3.83446603 4.6875 8.8125 C0.3975 8.4825 -3.8925 8.1525 -8.3125 7.8125 C-6.20875 8.5240625 -6.20875 8.5240625 -4.0625 9.25 C-3.27359375 9.51683594 -2.4846875 9.78367187 -1.671875 10.05859375 C0.43571988 10.73204708 2.53503973 11.30400595 4.6875 11.8125 C4.6875 12.4725 4.6875 13.1325 4.6875 13.8125 C-1.31355293 16.47963464 -6.72930231 18.07043587 -13.3125 16.8125 C-19.60879843 13.86529648 -24.45543807 8.08847286 -27.3125 1.8125 C-26.9825 0.8225 -26.6525 -0.1675 -26.3125 -1.1875 C-18.17127229 -4.78478666 -7.31973443 -5.38732454 0 0 Z " fill="#75DB4D" transform="translate(34.3125,111.1875)"/>
<path d="M0 0 C2.41741845 1.35979788 3.31912989 3.0460193 4.7421875 5.37109375 C10.75922629 13.76131243 19.20781287 17.27536465 29 19.125 C28.34 19.785 27.68 20.445 27 21.125 C27.99 22.115 27.99 22.115 29 23.125 C28.43410156 22.98191406 27.86820312 22.83882812 27.28515625 22.69140625 C25.79829249 22.32286737 24.30601585 21.97531714 22.80859375 21.65234375 C13.51006888 19.33920165 5.56568745 13.96873626 0 6.125 C0 5.465 0 4.805 0 4.125 C-0.65484375 4.63289063 -1.3096875 5.14078125 -1.984375 5.6640625 C-18.18773815 17.88524318 -18.18773815 17.88524318 -25.1953125 18.234375 C-26.58944945 18.03294076 -27.97734164 17.78366522 -29.35546875 17.4921875 C-33.13027009 16.96806442 -36.77240451 17.28532752 -40.5625 17.5625 C-41.29049805 17.61446533 -42.01849609 17.66643066 -42.76855469 17.7199707 C-44.51284524 17.84869219 -46.25650256 17.98594806 -48 18.125 C-47.67 17.465 -47.34 16.805 -47 16.125 C-44.40234375 15.8515625 -44.40234375 15.8515625 -40.9375 15.75 C-27.19639972 14.91042157 -13.84456543 12.11065473 -3.828125 1.9140625 C-2 0.125 -2 0.125 0 0 Z " fill="#2B240C" transform="translate(103,67.875)"/>
<path d="M0 0 C2.25 -0.375 2.25 -0.375 5 0 C6.40113616 1.95309888 7.73339467 3.95708818 9 6 C12.41457004 8.59036348 15.83282171 8.43108741 20 8 C23.27185195 6.23823357 25.44654748 4.76631888 27.625 1.75 C28.07875 1.1725 28.5325 0.595 29 0 C30.32 0 31.64 0 33 0 C32.49430263 4.42485195 31.10058108 6.81561943 28 10 C22.5824373 13.92773296 16.42998297 13.79491548 10 13 C5.56739922 10.86285319 2.68215085 8.12638592 0 4 C0 2.68 0 1.36 0 0 Z " fill="#1E1808" transform="translate(76,107)"/>
<path d="M0 0 C2 1 2 1 3 3 C-14.71100944 16.73649157 -14.71100944 16.73649157 -22.1953125 17.109375 C-23.58944945 16.90794076 -24.97734164 16.65866522 -26.35546875 16.3671875 C-30.13027009 15.84306442 -33.77240451 16.16032752 -37.5625 16.4375 C-38.29049805 16.48946533 -39.01849609 16.54143066 -39.76855469 16.5949707 C-41.51284524 16.72369219 -43.25650256 16.86094806 -45 17 C-44.67 16.34 -44.34 15.68 -44 15 C-41.40234375 14.7265625 -41.40234375 14.7265625 -37.9375 14.625 C-23.8037332 13.76142973 -10.09085714 10.74398705 0 0 Z " fill="#221B07" transform="translate(100,69)"/>
<path d="M0 0 C0 3 0 3 -2.59765625 5.9609375 C-3.74483786 7.10678673 -4.90018138 8.24450828 -6.0625 9.375 C-6.90458008 10.22191406 -6.90458008 10.22191406 -7.76367188 11.0859375 C-11.5814195 14.85569058 -15.47132832 18.10970593 -20 21 C-22.9375 20.8125 -22.9375 20.8125 -25 20 C-22.47347774 17.20797879 -19.60829475 15.38413461 -16.4375 13.375 C-10.42366117 9.43414094 -5.18993053 4.96028758 0 0 Z " fill="#11210B" transform="translate(169,31)"/>
<path d="M0 0 C3.625 0.25 3.625 0.25 5.5625 1.5625 C6.625 3.25 6.625 3.25 6.625 6.25 C4.76875 5.9715625 4.76875 5.9715625 2.875 5.6875 C-0.13779577 5.30288777 -2.47510827 5.1625406 -5.375 6.25 C-4.31051492 0.3192974 -4.31051492 0.3192974 0 0 Z " fill="#201B09" transform="translate(107.375,89.75)"/>
<path d="M0 0 C3.5 0.25 3.5 0.25 5.5 2.25 C5.5 3.57 5.5 4.89 5.5 6.25 C3.64375 5.9715625 3.64375 5.9715625 1.75 5.6875 C-1.26279577 5.30288777 -3.60010827 5.1625406 -6.5 6.25 C-5.60830437 1.79152184 -4.83428022 0.34530573 0 0 Z " fill="#221B08" transform="translate(77.5,89.75)"/>
<path d="M0 0 C4.41927681 1.83285738 8.71884363 3.86613209 13 6 C9.03512166 7.32162611 7.62600157 6.2745962 3.8125 4.6875 C-1.10995304 2.70530414 -5.81901136 1.11746814 -11 0 C-11.33 0.66 -11.66 1.32 -12 2 C-12 1.01 -12 0.02 -12 -1 C-8.20735088 -2.89632456 -3.90599435 -1.13693238 0 0 Z " fill="#11210C" transform="translate(157,67)"/>
<path d="M0 0 C-0.99 0.33 -1.98 0.66 -3 1 C-2.67 1.66 -2.34 2.32 -2 3 C-3.98 3.33 -5.96 3.66 -8 4 C-8 3.67 -8 3.34 -8 3 C-18.395 3.495 -18.395 3.495 -29 4 C-28.67 3.34 -28.34 2.68 -28 2 C-25.19140625 1.65625 -25.19140625 1.65625 -21.5625 1.5 C-16.2276643 1.20633932 -11.26598048 0.59527841 -6.0859375 -0.6953125 C-3.76780293 -1.03391643 -2.21380527 -0.71122251 0 0 Z " fill="#5D4113" transform="translate(84,82)"/>
<path d="M0 0 C4.95 0 9.9 0 15 0 C12 2 12 2 3 2 C3 7.94 3 13.88 3 20 C2.67 20 2.34 20 2 20 C2 14.72 2 9.44 2 4 C0.68 3.34 -0.64 2.68 -2 2 C-1.34 2 -0.68 2 0 2 C0 1.34 0 0.68 0 0 Z " fill="#4D5A48" transform="translate(158,81)"/>
<path d="M0 0 C0.66 0.33 1.32 0.66 2 1 C0.870664 4.38800799 0.19884768 4.83362605 -2.625 6.8125 C-6.61197836 9.68398802 -10.30280256 12.76495224 -14 16 C-12.34136495 11.67495164 -9.128959 8.90581175 -5.875 5.75 C-5.31167969 5.19570312 -4.74835937 4.64140625 -4.16796875 4.0703125 C-2.78313972 2.70895515 -1.39216796 1.35385141 0 0 Z " fill="#26481A" transform="translate(28,139)"/>
<path d="M0 0 C0.33 0 0.66 0 1 0 C1.06058594 1.0621875 1.12117188 2.124375 1.18359375 3.21875 C1.79270238 13.63715103 1.79270238 13.63715103 3 24 C0.32117995 22.13647301 -0.03204767 20.8557855 -0.75 17.625 C-1.31148315 11.74594109 -0.58016069 5.85516023 0 0 Z " fill="#427D2D" transform="translate(49,136)"/>
<path d="M0 0 C1.08667969 0.2165625 1.08667969 0.2165625 2.1953125 0.4375 C7.18491623 1.39550392 11.89267738 2.27607149 17 2 C17.33 1.34 17.66 0.68 18 0 C18.33 1.32 18.66 2.64 19 4 C11.49118208 5.44219467 6.67216405 4.75510682 0 1 C0 0.67 0 0.34 0 0 Z " fill="#2F5A21" transform="translate(21,117)"/>
<path d="M0 0 C2.31 0 4.62 0 7 0 C7 1.32 7 2.64 7 4 C4.69 4 2.38 4 0 4 C0 2.68 0 1.36 0 0 Z " fill="#3A2F10" transform="translate(89,100)"/>
<path d="M0 0 C-1.77444972 2.24606427 -2.58352485 2.95081002 -5.48046875 3.29296875 C-6.37378906 3.25816406 -7.26710938 3.22335938 -8.1875 3.1875 C-9.08855469 3.16042969 -9.98960938 3.13335937 -10.91796875 3.10546875 C-11.94857422 3.05326172 -11.94857422 3.05326172 -13 3 C-13 2.34 -13 1.68 -13 1 C-8.60563789 0.14256349 -4.47427924 -0.08948558 0 0 Z " fill="#1E1707" transform="translate(78,84)"/>
<path d="M0 0 C0.66 0 1.32 0 2 0 C2.375 2.25 2.375 2.25 2 5 C-1 7.3125 -1 7.3125 -4 9 C-4.66 8.67 -5.32 8.34 -6 8 C-5.195625 7.236875 -4.39125 6.47375 -3.5625 5.6875 C-0.83200976 3.20569102 -0.83200976 3.20569102 0 0 Z " fill="#13270F" transform="translate(35,132)"/>
<path d="M0 0 C1.08667969 0.01804688 2.17335938 0.03609375 3.29296875 0.0546875 C4.54013672 0.08949219 4.54013672 0.08949219 5.8125 0.125 C5.8125 1.115 5.8125 2.105 5.8125 3.125 C4.8225 3.62 4.8225 3.62 3.8125 4.125 C3.4825 3.465 3.1525 2.805 2.8125 2.125 C-1.1475 2.125 -5.1075 2.125 -9.1875 2.125 C-5.66070901 -0.22619399 -4.15870515 -0.08943452 0 0 Z " fill="#53A13E" transform="translate(29.1875,131.875)"/>
<path d="M0 0 C4.23429756 1.31061591 8.07407404 2.94356259 12 5 C8.29218328 6.23593891 7.32489747 5.5678132 3.8125 4.0625 C2.91144531 3.68222656 2.01039063 3.30195312 1.08203125 2.91015625 C0.39496094 2.60980469 -0.29210937 2.30945313 -1 2 C-0.67 1.34 -0.34 0.68 0 0 Z " fill="#386623" transform="translate(158,68)"/>
<path d="M0 0 C0 3 0 3 -1.53125 4.82421875 C-2.1809375 5.43910156 -2.830625 6.05398437 -3.5 6.6875 C-4.1496875 7.31011719 -4.799375 7.93273438 -5.46875 8.57421875 C-5.9740625 9.04472656 -6.479375 9.51523437 -7 10 C-7.66 9.34 -8.32 8.68 -9 8 C-6.03 5.36 -3.06 2.72 0 0 Z " fill="#223C15" transform="translate(169,31)"/>
<path d="M0 0 C-1 3 -1 3 -3.375 4.25 C-6 5 -6 5 -9 4 C-7.68 3.67 -6.36 3.34 -5 3 C-5 2.34 -5 1.68 -5 1 C-3 0 -3 0 0 0 Z " fill="#130E03" transform="translate(89,79)"/>
<path d="M0 0 C0.33 0 0.66 0 1 0 C2.25 6.625 2.25 6.625 0 10 C0.66 10.33 1.32 10.66 2 11 C1.01 11.33 0.02 11.66 -1 12 C-1.14285714 3.42857143 -1.14285714 3.42857143 0 0 Z " fill="#468F36" transform="translate(142,40)"/>
<path d="M0 0 C0.66 0.33 1.32 0.66 2 1 C0.515 3.475 0.515 3.475 -1 6 C-2.65 5.67 -4.3 5.34 -6 5 C-4.06745228 2.9754262 -2.36841312 1.57894208 0 0 Z " fill="#162C10" transform="translate(150,46)"/>
</svg>
